<?xml version="1.0" encoding="utf-8"?>
<!-- Generator: Adobe Illustrator 21.1.0, SVG Export Plug-In . SVG Version: 6.00 Build 0)  -->
<svg version="1.1" id="Layer_1" xmlns="http://www.w3.org/2000/svg" xmlns:xlink="http://www.w3.org/1999/xlink" x="0px" y="0px"
	 viewBox="0 0 200 200" style="enable-background:new 0 0 200 200;" xml:space="preserve">
<style type="text/css">
	.st0{fill:#67DBAE;}
</style>
<g>
	<path class="st0" d="M142.5,142.8c5.6,0,10-4.6,10-10s-4.6-10-10-10s-10,4.6-10,10C132.5,138.2,136.9,142.8,142.5,142.8z
		 M142.5,127c3.3,0,5.6,2.6,5.6,5.6c0,3.3-2.6,5.6-5.6,5.6s-5.6-2.6-5.6-5.6S139.3,127,142.5,127z"/>
	<path class="st0" d="M57.9,142.8c5.6,0,10-4.6,10-10s-4.6-10-10-10s-10,4.6-10,10C47.9,138.2,52.3,142.8,57.9,142.8z M57.9,127
		c3.3,0,5.6,2.6,5.6,5.6c0,3.3-2.6,5.6-5.6,5.6s-5.6-2.6-5.6-5.6C52.3,129.6,54.6,127,57.9,127z"/>
	<path class="st0" d="M156.6,33.5H43.8c-6.1,0-10.8,4.8-10.8,10.8v128c0,2.4,2,4.3,4.8,4.3h1.7v15c0,2.4,2,4.3,4.3,4.3h28.4l0.4-0.2
		c0.9-0.4,3.5-1.7,3.5-4.1v-15h47.7v15c0,2.4,2,4.3,4.3,4.3h28.4l0.4-0.2c0.9-0.4,3.5-1.7,3.5-4.1v-15h2.6c2.2,0,3.9-2,3.9-4.3v-128
		C167.5,38.3,162.7,33.5,156.6,33.5z M37.3,59.3H98v52.1H37.3V59.3z M50.3,191.7h-6.5v-15h6.5V191.7z M61.2,191.7h-6.5v-15h6.5
		V191.7z M72,191.2c-0.2,0.2-0.4,0.2-0.7,0.4h-5.9v-15H72V191.2z M134.9,191.7h-6.5v-15h6.5V191.7z M145.8,191.7h-6.5v-15h6.5V191.7
		z M156.6,191.2c-0.2,0.2-0.4,0.2-0.7,0.4H150v-15h6.5L156.6,191.2L156.6,191.2z M163.1,172.4H37.7c-0.2,0-0.4,0-0.4,0l0,0V155
		h125.8V172.4z M163.1,150.7H37.3V116h125.8V150.7z M163.1,111.4h-60.7V59.3h60.7V111.4z M163.1,55H37.3V44.4c0-3.7,2.8-6.5,6.5-6.5
		h112.8c3.7,0,6.5,2.8,6.5,6.5V55z"/>
	<path class="st0" d="M80.7,129h39.1c1.3,0,2.2-0.9,2.2-2.2s-0.9-2.2-2.2-2.2H80.7c-1.3,0-2.2,0.9-2.2,2.2
		C78.5,128.1,79.4,129,80.7,129z"/>
	<path class="st0" d="M117.6,44.4H82.8c-1.3,0-2.2,0.9-2.2,2.2s0.9,2.2,2.2,2.2h34.7c1.3,0,2.2-0.9,2.2-2.2S118.9,44.4,117.6,44.4z"
		/>
	<path class="st0" d="M80.7,139.8h39.1c1.3,0,2.2-0.9,2.2-2.2s-0.9-2.2-2.2-2.2H80.7c-1.3,0-2.2,0.9-2.2,2.2
		C78.5,138.9,79.4,139.8,80.7,139.8z"/>
</g>
</svg>
