<?xml version="1.0" encoding="utf-8"?>
<!-- Generator: Adobe Illustrator 21.1.0, SVG Export Plug-In . SVG Version: 6.00 Build 0)  -->
<svg version="1.1" id="Layer_1" xmlns="http://www.w3.org/2000/svg" xmlns:xlink="http://www.w3.org/1999/xlink" x="0px" y="0px"
	 viewBox="0 0 200 200" style="enable-background:new 0 0 200 200;" xml:space="preserve">
<style type="text/css">
	.st0{fill:#67DBAE;}
	.st1{display:none;}
	.st2{display:inline;}
</style>
<g id="Layer_1_1_">
	<title>car2</title>
	<desc>Created with Sketch.</desc>
	<g>
		<g>
			<g transform="translate(11.000000, 21.000000)">
				<g>
					<path class="st0" d="M144.9,176c-3.8,0-6.8-3.1-6.8-6.8V165c-1.9,0.1-4,0.2-6.1,0.2c-0.2,0-25.5,2.2-40.3,2.2c-1,0-1.9,0-2.7,0
						h-0.1c-0.9,0-1.8,0-2.7,0c-14.8,0-40.1-2.2-40.4-2.2l0,0c-19.1,0-23.4-4.8-23.6-5c-2.6-2.5-4.7-7.4-4.6-11.1
						c0-0.2-0.1-21.5,4.2-34.4c2-6.1,3.5-9.9,4.4-11.2c0-0.1,0-0.2-0.1-0.3c-0.1-0.8-0.2-1.3-1.2-1.5c-0.5-0.1-1.1-0.2-1.6-0.2
						c-1.9-0.2-3.8-0.5-4.8-1.7c-0.5-0.7-0.7-1.7-0.5-2.9c0.7-3.9,3.8-6.4,7.8-6.4c0.6,0,1.2,0.1,1.9,0.2c2.7,0.5,5.1,1.6,6.7,3.1
						l0.7,0.8c0.2,0.2,0.3,0.4,0.4,0.6l12.7-17.7c2.1-3,6.8-5.4,10.5-5.4h60.4c3.7,0,8.4,2.4,10.5,5.4l12.7,17.7
						c0.1-0.2,0.2-0.4,0.4-0.6l0.7-0.8c1.6-1.5,4-2.7,6.7-3.1c0.6-0.1,1.3-0.2,1.9-0.2c4.1,0,7.1,2.5,7.8,6.4
						c0.2,1.2,0.1,2.2-0.5,2.9c-0.9,1.3-2.9,1.5-4.8,1.7c-0.6,0.1-1.1,0.1-1.6,0.2c-0.9,0.2-1,0.7-1.2,1.5c0,0.1,0,0.2-0.1,0.3
						c0.9,1.3,2.4,5.1,4.4,11.2c3.4,10.2,4,25.4,4.2,31.5c0.1,0.4,0.2,0.9,0.2,1.4v21.5c0,3.8-3.1,6.8-6.8,6.8h-8.7V176z M141,169.1
						c0,2.2,1.8,3.9,3.9,3.9h8.6c2.2,0,3.9-1.8,3.9-3.9v-11.2c-0.6,0.9-1.2,1.7-1.9,2.3c-0.1,0.1-3,3.4-14.6,4.6v4.3H141z
						 M89.3,164.5c0.8,0,1.6,0,2.4,0c3.9,0,8.8-0.1,14.7-0.4c3.3-0.2,7-0.4,10.9-0.6c3.6-0.2,7.1-0.5,10.3-0.7
						c1.1-0.1,4.2-0.3,4.2-0.3c8.7,0,15.1-0.9,19.1-2.6c0.9-0.4,2.8-1.7,2.8-1.7c2-1.9,3.8-6.1,3.7-9c0-1.9-0.1-4.6-0.2-7.2
						c-0.2-5.2-0.7-10.1-1.3-14.4c-0.7-4.7-1.5-8.7-2.6-11.8c-2.1-6.5-4.4-11.6-4.4-11.6l-0.1-0.1V104l0,0c0,0,0-0.1,0-0.3
						c0-0.5,0-0.7,0-0.8c0.2-0.9,0.3-1.4,0.7-2c0.6-0.9,1.6-1.6,2.8-1.8c0.5-0.1,0.9-0.1,1.8-0.3c1.7-0.2,2.4-0.3,2.7-0.6
						c0.1-0.1,0.1-0.2,0-0.7c-0.4-2.5-2.3-4.1-5-4.1c-0.4,0-0.9,0-1.4,0.1c-3.1,0.5-5.4,2.1-5.8,3.3L143,101l-0.3-0.1
						c-0.4,0-2.1,0.1-4.6,0.2c-10.4,0.6-34.8,1.8-50.3,1.8c-14.9,0-36.8-1.2-47.3-1.8c-3.1-0.2-5.2-0.3-5.6-0.3l-0.5,0.1v-0.4
						L33,96.8c-0.4-1.2-2.8-2.7-5.8-3.3c-0.5-0.1-0.9-0.1-1.4-0.1c-2.7,0-4.5,1.5-5,4.1c-0.1,0.5-0.1,0.6-0.1,0.6
						c0.4,0.2,1.1,0.4,2.8,0.6c0.9,0.1,1.3,0.2,1.8,0.3c1.2,0.2,2.2,0.8,2.8,1.8c0.4,0.6,0.6,1.1,0.7,2c0,0.1,0,0.3,0,0.8
						c0,0.2,0,0.3,0,0.3v0.1l0.2,0c0,0.1-2.3,5.2-4.4,11.6c-1,3.2-1.9,7.1-2.6,11.8c-0.6,4.4-1.1,9.2-1.3,14.4
						c-0.1,2.6-0.2,5.3-0.2,7.2c-0.1,2.9,1.6,7.1,3.7,9l0,0c0,0,1.9,1.3,2.8,1.6c4,1.7,10.4,2.6,19,2.6c0,0,3.1,0.3,4.2,0.3
						c3.3,0.3,6.7,0.5,10.3,0.7c3.9,0.3,7.6,0.5,10.9,0.6c5.9,0.3,10.8,0.4,14.7,0.4c0.8,0,1.7,0,2.4,0l0,0h0.3L89.3,164.5
						L89.3,164.5z M37.2,97.9c7,0.4,34.5,2,50.8,2c16.2,0,45.4-1.6,52.8-2l-13.5-18.8c-1.6-2.2-5.4-4.2-8.1-4.2H58.8
						c-2.7,0-6.6,2-8.1,4.2L37.2,97.9z M89,159c-23.4-0.1-56.7-2.4-57-2.4c-1.6-0.1-2.7-0.7-3-1.6c-0.3-0.9,0.1-2,1.3-3.1l0.9-0.8
						c2-2,5.8-3.4,8.8-3.4c0.2,0,0.5,0,0.7,0c0.3,0,25.9,2.3,48.4,2.3s50.3-2.3,50.6-2.3c0.2,0,0.4,0,0.7,0c3,0,6.8,1.5,8.9,3.4
						l0.9,0.8c1.2,1.1,1.6,2.2,1.3,3.2c-0.3,0.9-1.4,1.5-3,1.6c-0.3,0-33.8,2.4-57.2,2.4C90.4,159,89.7,159,89,159z M33.7,153.8
						c1.3,0.1,2.7,0.2,4.4,0.3c4.8,0.3,9.8,0.6,14.8,0.8c6.9,0.4,13.3,0.6,19.2,0.8c6.3,0.2,12,0.3,16.9,0.4c0.7,0,2.1,0,2.1,0
						c4.9,0,10.7-0.1,17.1-0.3c6.2-0.2,13-0.5,20.2-0.9c4.7-0.2,9.4-0.5,14.1-0.8c1.5-0.1,2.9-0.2,4.1-0.3l1.2-0.1l-0.6-0.6
						c-1.5-1.5-4.6-2.6-6.8-2.6c-0.1,0-0.3,0-0.4,0l-1.3,0.1c-1,0.1-2.2,0.2-3.5,0.3c-4,0.3-8.1,0.6-12.1,0.8
						c-8.4,0.5-16.2,0.8-23.2,1c-3.9,0.1-7.5,0.2-10.8,0.2c-2.3,0-4.6,0-7-0.1c-7.8-0.1-16.6-0.5-25.9-1.1
						c-3.9-0.2-7.7-0.5-11.4-0.8c-1.2-0.1-2.3-0.2-3.2-0.3l-1.1-0.1c-0.1,0-0.3,0-0.5,0c-2.3,0-5.3,1.2-6.8,2.6l-0.6,0.6L33.7,153.8
						z M73.9,139.4c-3.7,0-7.3-3-8.1-6.6L64,124c-0.4-1.8,0-3.5,1.1-4.8c1-1.3,2.6-2,4.5-2h38.8c1.8,0,3.4,0.7,4.5,2s1.4,3,1.1,4.8
						l-1.8,8.8c-0.7,3.7-4.4,6.6-8.1,6.6H73.9z M69.6,120c-0.9,0-1.7,0.3-2.2,0.9s-0.7,1.5-0.5,2.4l1.8,8.8c0.5,2.3,2.9,4.3,5.2,4.3
						H104c2.4,0,4.8-2,5.2-4.3l1.8-8.8c0.2-0.9,0-1.8-0.5-2.4s-1.3-0.9-2.2-0.9H69.6z M128.8,138.3c-5,0-9-4-9-9s4-9,9-9s9,4,9,9
						S133.8,138.3,128.8,138.3z M128.8,123.3c-3.4,0-6.1,2.7-6.1,6.1c0,3.4,2.7,6.1,6.1,6.1c3.4,0,6.1-2.7,6.1-6.1
						C134.9,126,132.2,123.3,128.8,123.3z M51.3,138.3c-5,0-9-4-9-9s4-9,9-9s9,4,9,9S56.3,138.3,51.3,138.3z M51.3,123.3
						c-3.4,0-6.1,2.7-6.1,6.1c0,3.4,2.7,6.1,6.1,6.1s6.1-2.7,6.1-6.1C57.4,126,54.7,123.3,51.3,123.3z M105.1,135.1
						c-0.8,0-1.5-0.7-1.5-1.4v-10.8c0-0.8,0.7-1.4,1.5-1.4s1.5,0.7,1.5,1.4v10.8C106.6,134.5,105.9,135.1,105.1,135.1z M100.5,135.1
						c-0.8,0-1.5-0.7-1.5-1.4v-10.8c0-0.8,0.7-1.4,1.5-1.4s1.5,0.7,1.5,1.4v10.8C102,134.5,101.3,135.1,100.5,135.1z M95.9,135.1
						c-0.8,0-1.5-0.7-1.5-1.4v-10.8c0-0.8,0.7-1.4,1.5-1.4s1.5,0.7,1.5,1.4v10.8C97.4,134.5,96.7,135.1,95.9,135.1z M91.3,135.1
						c-0.8,0-1.5-0.7-1.5-1.4v-10.8c0-0.8,0.7-1.4,1.5-1.4s1.5,0.7,1.5,1.4v10.8C92.8,134.5,92.1,135.1,91.3,135.1z M86.7,135.1
						c-0.8,0-1.5-0.7-1.5-1.4v-10.8c0-0.8,0.7-1.4,1.5-1.4s1.5,0.7,1.5,1.4v10.8C88.1,134.5,87.5,135.1,86.7,135.1z M82.1,135.1
						c-0.8,0-1.5-0.7-1.5-1.4v-10.8c0-0.8,0.7-1.4,1.5-1.4s1.5,0.7,1.5,1.4v10.8C83.5,134.5,82.9,135.1,82.1,135.1z M77.5,135.1
						c-0.8,0-1.5-0.7-1.5-1.4v-10.8c0-0.8,0.7-1.4,1.5-1.4s1.5,0.7,1.5,1.4v10.8C78.9,134.5,78.3,135.1,77.5,135.1z M72.9,135.1
						c-0.8,0-1.5-0.7-1.5-1.4v-10.8c0-0.8,0.7-1.4,1.5-1.4s1.5,0.7,1.5,1.4v10.8C74.3,134.5,73.6,135.1,72.9,135.1z M146,134
						c-3.8,0-6.8-3.1-6.8-6.8c0-3.8,3.1-6.8,6.8-6.8s6.8,3.1,6.8,6.8C152.8,131,149.8,134,146,134z M146,123.3
						c-2.2,0-3.9,1.8-3.9,3.9s1.8,3.9,3.9,3.9s3.9-1.8,3.9-3.9S148.2,123.3,146,123.3z M34.1,134c-3.8,0-6.8-3.1-6.8-6.8
						c0-3.8,3.1-6.8,6.8-6.8s6.8,3.1,6.8,6.8C41,131,37.9,134,34.1,134z M34.1,123.3c-2.2,0-3.9,1.8-3.9,3.9s1.8,3.9,3.9,3.9
						c2.2,0,3.9-1.8,3.9-3.9S36.3,123.3,34.1,123.3z M48.2,91.9c-0.2,0-0.5-0.1-0.7-0.2c-0.9-0.5-0.8-1.4-0.6-1.9
						c0.1-0.1,0.2-0.3,0.3-0.6c0.2-0.4,0.5-0.9,0.8-1.4c1-1.5,2-2.9,3-4.2c3.2-3.9,6.1-6,8.9-6.3c0.3,0,0.6-0.1,0.9-0.1
						c0.5,0,1.3,0.4,1.3,1.4s-0.8,1.4-1.3,1.5c-0.2,0-0.4,0-0.5,0c-2,0.3-4.5,2.1-7.1,5.3c-1,1.2-1.9,2.5-2.8,3.9
						c-0.6,1-1,1.6-1.1,1.8C49.3,91.3,48.9,91.9,48.2,91.9L48.2,91.9z"/>
					<path class="st0" d="M119.1,72.3c3.5,0,8.1,2.3,10.2,5.2L141,93.9l0.7,1l0.7,0.9c0.1-0.4,0.3-0.7,0.6-1.1l0.7-0.8
						c1.4-1.4,3.7-2.5,6.5-3c0.6-0.1,1.2-0.2,1.8-0.2c4,0,6.8,2.5,7.5,6.1c0.7,4.2-3.4,3.8-6.6,4.4c-1.4,0.3-1.4,1.3-1.6,2.3
						c0.5,0.7,1.8,3.2,4.5,11.2c3.3,10.1,4,25.2,4.2,31.4c0.1,0.5,0.2,0.9,0.2,1.4V169c0,3.6-2.9,6.5-6.5,6.5h-8.6
						c-3.6,0-6.5-2.9-6.5-6.5v-4.5c-1.9,0.1-4.1,0.2-6.5,0.2c0,0-25.4,2.2-40.3,2.2c-0.9,0-1.8,0-2.7,0v-2.2c0.8,0,1.7,0,2.7,0
						c4,0,9-0.2,14.7-0.4c3.5-0.2,7.1-0.4,10.9-0.6c3.6-0.2,7.1-0.5,10.3-0.7c1.1-0.1,2.2-0.2,3.1-0.2c0.5,0,0.9-0.1,1.1-0.1l0,0
						c10.3,0,15.9-1.2,19.1-2.6c0.9-0.4,2.9-1.7,2.9-1.7c2.1-2,3.9-6.3,3.9-9.3c0-1.6,0-4.1-0.2-7.2c-0.2-5-0.6-9.9-1.3-14.5
						c-0.7-4.6-1.5-8.7-2.6-11.9c-2.2-6.6-4.4-11.7-4.4-11.7s0-1,0-1.1c0.2-0.9,0.3-1.3,0.7-1.9c0.6-0.9,1.4-1.4,2.6-1.6
						c0.5-0.1,0.9-0.1,1.8-0.2c1.7-0.2,2.4-0.4,2.9-0.6c0.2-0.1,0.3-0.3,0.2-1c-0.5-2.7-2.5-4.4-5.3-4.4c-0.5,0-0.9,0-1.4,0.1
						c-3.1,0.5-5.6,2.2-6.1,3.5l-1.4,3.8l0,0c-1.4,0-35.5,2.1-55,2.1s-51.1-2.1-53-2.1h-0.1l0,0l-1.4-3.8c-0.5-1.3-3-3-6.1-3.5
						c-0.5-0.1-1-0.1-1.4-0.1c-2.9,0-4.9,1.7-5.3,4.4c-0.1,0.8-0.1,0.9,0.2,1c0.4,0.3,1.2,0.4,2.9,0.6c0.9,0.1,1.3,0.2,1.8,0.2
						c1.1,0.2,2,0.7,2.6,1.6c0.4,0.6,0.5,1,0.7,1.9c0,0.1,0,1.1,0,1.1s-2.3,5.1-4.4,11.7c-1.1,3.3-1.9,7.3-2.6,11.9
						c-0.7,4.6-1.1,9.5-1.3,14.5c-0.1,3.1-0.2,5.6-0.2,7.2c-0.1,3,1.7,7.3,3.9,9.3c0,0,2,1.3,2.9,1.7c3.3,1.4,8.9,2.6,19.1,2.6l0,0
						c0.2,0,0.6,0,1.1,0.1c0.9,0.1,1.9,0.2,3.1,0.2c3.3,0.3,6.7,0.5,10.3,0.7c3.8,0.3,7.5,0.5,10.9,0.6c5.7,0.3,10.7,0.4,14.7,0.4
						c0.9,0,1.8,0,2.7,0v2.2c-0.9,0-1.8,0-2.7,0c-15,0-40.3-2.2-40.3-2.2c-19.2,0-23.3-4.9-23.3-4.9c-2.6-2.4-4.6-7.3-4.5-10.8
						c0,0-0.1-21.3,4.2-34.3c2.7-8.1,3.9-10.5,4.5-11.2c-0.2-1-0.2-2-1.6-2.3c-3.2-0.6-7.3-0.2-6.6-4.4c0.6-3.7,3.5-6.1,7.5-6.1
						c0.6,0,1.2,0.1,1.8,0.2c2.7,0.5,5.1,1.7,6.5,3l0.7,0.8c0.3,0.4,0.5,0.7,0.6,1.1l0.7-0.9l0.7-1l11.6-16.3
						c2.1-2.9,6.7-5.2,10.2-5.2h30.1v2.2H58.8c-2.9,0-6.8,2-8.4,4.3l-13,18.3l-0.8,1.1c6.3,0.4,34.8,2.1,51.5,2.1s46.8-1.7,53.5-2.1
						l-0.8-1.1l-13-18.3c-1.7-2.3-5.6-4.3-8.4-4.3H89v-2.2L119.1,72.3 M144.9,173.5h8.6c2.4,0,4.3-1.9,4.3-4.3v-12.6
						c-0.7,1.3-1.6,2.5-2.5,3.4c0,0-2.8,3.4-14.7,4.5v4.7C140.6,171.5,142.6,173.5,144.9,173.5 M60.8,77.7c0,0,0.9,0.1,0.9,1
						c0,1-0.9,1.1-0.9,1.1c-0.2,0-0.4,0-0.5,0c-2.2,0.3-4.7,2.3-7.3,5.4c-1,1.2-2,2.6-2.8,3.9c-0.5,0.8-0.9,1.4-1.1,1.8
						c0,0-0.3,0.5-0.9,0.5c-0.2,0-0.3,0-0.5-0.2c-0.8-0.5-0.4-1.4-0.4-1.4c0.1-0.1,0.2-0.3,0.3-0.5c0.2-0.4,0.5-0.9,0.8-1.4
						c0.9-1.4,1.9-2.8,3-4.1c2.9-3.5,5.8-5.8,8.7-6.2C60.3,77.7,60.6,77.7,60.8,77.7 M108.4,117.5c3.6,0,5.9,2.8,5.2,6.3l-1.8,8.8
						c-0.7,3.5-4.2,6.3-7.7,6.3H73.9c-3.6,0-7-2.8-7.7-6.3l-1.8-8.8c-0.7-3.5,1.6-6.3,5.2-6.3H108.4 M73.9,136.9H104
						c2.5,0,5.1-2.1,5.6-4.6l1.8-8.8c0.4-2.2-0.9-3.8-3.1-3.8H69.6c-2.2,0-3.5,1.6-3.1,3.8l1.8,8.8
						C68.8,134.8,71.4,136.9,73.9,136.9 M146,120.7c3.6,0,6.5,2.9,6.5,6.5c0,3.6-2.9,6.5-6.5,6.5s-6.5-2.9-6.5-6.5
						C139.6,123.6,142.5,120.7,146,120.7 M146,131.5c2.4,0,4.3-1.9,4.3-4.3c0-2.4-1.9-4.3-4.3-4.3c-2.4,0-4.3,1.9-4.3,4.3
						C141.7,129.6,143.6,131.5,146,131.5 M128.8,120.7c4.8,0,8.6,3.9,8.6,8.6c0,4.8-3.9,8.6-8.6,8.6c-4.8,0-8.6-3.9-8.6-8.6
						C120.2,124.6,124.1,120.7,128.8,120.7 M128.8,135.8c3.6,0,6.5-2.9,6.5-6.5c0-3.6-2.9-6.5-6.5-6.5c-3.6,0-6.5,2.9-6.5,6.5
						C122.3,132.9,125.2,135.8,128.8,135.8 M51.3,120.7c4.8,0,8.6,3.9,8.6,8.6c0,4.8-3.9,8.6-8.6,8.6c-4.8,0-8.6-3.9-8.6-8.6
						C42.7,124.6,46.6,120.7,51.3,120.7 M51.3,135.8c3.6,0,6.5-2.9,6.5-6.5c0-3.6-2.9-6.5-6.5-6.5s-6.5,2.9-6.5,6.5
						C44.9,132.9,47.8,135.8,51.3,135.8 M34.1,120.7c3.6,0,6.5,2.9,6.5,6.5c0,3.6-2.9,6.5-6.5,6.5s-6.5-2.9-6.5-6.5
						C27.7,123.6,30.6,120.7,34.1,120.7 M34.1,131.5c2.4,0,4.3-1.9,4.3-4.3c0-2.4-1.9-4.3-4.3-4.3s-4.3,1.9-4.3,4.3
						C29.8,129.6,31.8,131.5,34.1,131.5 M105.1,121.8c0.6,0,1.1,0.5,1.1,1.1v10.8c0,0.6-0.5,1.1-1.1,1.1s-1.1-0.5-1.1-1.1v-10.8
						C104.1,122.3,104.6,121.8,105.1,121.8 M100.5,121.8c0.6,0,1.1,0.5,1.1,1.1v10.8c0,0.6-0.5,1.1-1.1,1.1s-1.1-0.5-1.1-1.1v-10.8
						C99.5,122.3,99.9,121.8,100.5,121.8 M95.9,121.8c0.6,0,1.1,0.5,1.1,1.1v10.8c0,0.6-0.5,1.1-1.1,1.1s-1.1-0.5-1.1-1.1v-10.8
						C94.8,122.3,95.3,121.8,95.9,121.8 M91.3,121.8c0.6,0,1.1,0.5,1.1,1.1v10.8c0,0.6-0.5,1.1-1.1,1.1s-1.1-0.5-1.1-1.1v-10.8
						C90.2,122.3,90.7,121.8,91.3,121.8 M86.7,121.8c0.6,0,1.1,0.5,1.1,1.1v10.8c0,0.6-0.5,1.1-1.1,1.1s-1.1-0.5-1.1-1.1v-10.8
						C85.6,122.3,86.1,121.8,86.7,121.8 M82.1,121.8c0.6,0,1.1,0.5,1.1,1.1v10.8c0,0.6-0.5,1.1-1.1,1.1s-1.1-0.5-1.1-1.1v-10.8
						C81,122.3,81.5,121.8,82.1,121.8 M77.5,121.8c0.6,0,1.1,0.5,1.1,1.1v10.8c0,0.6-0.5,1.1-1.1,1.1s-1.1-0.5-1.1-1.1v-10.8
						C76.4,122.3,76.9,121.8,77.5,121.8 M72.9,121.8c0.6,0,1.1,0.5,1.1,1.1v10.8c0,0.6-0.5,1.1-1.1,1.1s-1.1-0.5-1.1-1.1v-10.8
						C71.8,122.3,72.3,121.8,72.9,121.8 M140.2,148c2.9,0,6.6,1.4,8.6,3.3l0.9,0.8c2.1,2.1,1.5,3.9-1.5,4.1c0,0-33.5,2.4-57.1,2.4
						c-0.7,0-1.4,0-2.1,0c-23.7-0.2-57-2.4-57-2.4c-3-0.2-3.6-2-1.5-4.1l0.9-0.8c2-1.9,5.7-3.3,8.6-3.3c0.2,0,0.4,0,0.7,0
						c0,0,25.7,2.3,48.4,2.3s50.6-2.3,50.6-2.3C139.8,148,140,148,140.2,148 M89,152.5c-2.3,0-4.6,0-7-0.1c-8.2-0.2-17-0.5-25.9-1.1
						c-4.1-0.3-7.9-0.5-11.3-0.8c-1.2-0.1-2.3-0.2-3.2-0.3c-0.6,0-1-0.1-1.1-0.1c-0.2,0-0.3,0-0.5,0c-2.3,0-5.5,1.2-7.1,2.7
						l-0.9,0.8c-0.3,0.3-0.3,0.3-0.3,0.3s0.3,0,0.5,0.1c0.3,0,0.8,0.1,1.6,0.1c1.3,0.1,2.7,0.2,4.4,0.3c4.6,0.3,9.6,0.6,14.8,0.8
						c6.7,0.3,13.1,0.6,19.2,0.8c6.2,0.2,11.9,0.3,16.9,0.4c0.7,0,1.4,0,2.1,0c5,0,10.8-0.1,17.1-0.3c6.4-0.2,13.2-0.5,20.2-0.9
						c4.9-0.3,9.7-0.5,14.1-0.8c1.5-0.1,2.9-0.2,4.1-0.3c0.7,0,1.2-0.1,1.5-0.1c0.4,0,0.4-0.1,0.4-0.1s-0.2-0.2-0.3-0.3l-0.9-0.8
						c-1.6-1.5-4.8-2.7-7.1-2.7c-0.2,0-0.3,0-0.5,0s-0.6,0.1-1.3,0.1c-1,0.1-2.2,0.2-3.5,0.3c-3.7,0.3-7.8,0.6-12.1,0.8
						c-8,0.5-15.8,0.8-23.2,1C96,152.4,92.4,152.5,89,152.5 M119.1,71.6H89.6h-0.8h-30c-3.8,0-8.6,2.5-10.8,5.6L36.3,93.4l-0.7,1
						l-0.1-0.1l0,0l0,0l-0.7-0.8l0,0l0,0c-1.6-1.6-4.1-2.7-6.9-3.2c-0.7-0.1-1.3-0.2-1.9-0.2c-4.3,0-7.5,2.7-8.2,6.8
						c-0.2,1.3,0,2.4,0.5,3.2c1,1.4,3.1,1.6,5,1.9c0.5,0.1,1.1,0.1,1.6,0.2c0.7,0.1,0.7,0.4,0.9,1.2c0,0.1,0,0.1,0,0.2
						c-0.9,1.4-2.4,5.2-4.4,11.2c-4.3,12.9-4.2,34.3-4.2,34.5c-0.1,3.7,2,8.8,4.7,11.3c0.5,0.5,5.2,5.1,23.8,5.1
						c1,0.1,25.8,2.2,40.4,2.2c1,0,1.9,0,2.7,0l0,0l0,0c0.9,0,1.8,0,2.7,0c14.6,0,39.3-2.1,40.4-2.2c2,0,3.9-0.1,5.7-0.2v3.7
						c0,4,3.2,7.2,7.2,7.2h8.6c4,0,7.2-3.2,7.2-7.2v-21.5c0-0.5-0.1-1-0.2-1.5c-0.1-6.2-0.8-21.4-4.2-31.6c-2-6-3.5-9.7-4.4-11.2
						c0-0.1,0-0.1,0-0.2c0.2-0.8,0.2-1.1,0.9-1.2c0.5-0.1,1.1-0.2,1.6-0.2c2-0.2,4-0.5,5-1.9c0.6-0.8,0.8-1.9,0.5-3.2
						c-0.7-4.1-3.9-6.8-8.2-6.8c-0.6,0-1.3,0.1-1.9,0.2c-2.7,0.5-5.2,1.7-6.9,3.2l0,0l0,0l-0.7,0.8l0,0l0,0l-0.1,0.1l-0.7-1
						l-11.6-16.3C127.7,74.1,122.9,71.6,119.1,71.6L119.1,71.6z M88.2,75.2H89h30.1c2.6,0,6.3,1.9,7.8,4l13,18.3l0,0
						c-8.3,0.5-36.3,2-52.1,2c-15.7,0-42.2-1.5-50.1-2l0,0l13-18.3c1.5-2.1,5.2-4,7.8-4H88.2L88.2,75.2z M143.4,101.4l0.3-0.7
						l1.4-3.8c0.3-0.9,2.5-2.5,5.6-3c0.5-0.1,0.9-0.1,1.3-0.1c2.5,0,4.2,1.4,4.6,3.7c0,0.2,0,0.3,0.1,0.3c-0.4,0.2-1.1,0.3-2.5,0.4
						c-0.9,0.1-1.3,0.2-1.8,0.3c-1.3,0.2-2.4,0.9-3.1,1.9c-0.4,0.7-0.6,1.2-0.8,2.2c0,0.1,0,0.3,0,0.9c0,0.1,0,0.2,0,0.3v0.2
						l0.1,0.2c0,0.1,2.3,5.2,4.4,11.6c1,3.1,1.9,7.1,2.6,11.8c0.6,4.3,1,9.2,1.3,14.4c0.1,2.6,0.2,5.2,0.2,7.2
						c0.1,2.8-1.6,6.8-3.6,8.7c-0.6,0.4-2,1.3-2.7,1.6c-3.9,1.7-10.3,2.5-18.9,2.5l0,0h-0.1l-1.1,0.1c-0.9,0.1-1.9,0.2-3.1,0.2
						c-3.5,0.3-6.9,0.5-10.3,0.7c-3.9,0.3-7.6,0.5-10.9,0.6c-5.9,0.3-10.8,0.4-14.7,0.4c-0.7,0-1.4,0-2,0l0,0H89h-0.7l0,0
						c-0.6,0-1.3,0-2,0c-3.9,0-8.8-0.1-14.7-0.4c-3.4-0.2-7-0.4-10.9-0.6c-3.4-0.2-6.9-0.5-10.3-0.7c-1.1-0.1-2.2-0.2-3.1-0.2
						l-1.1-0.1l0,0l0,0c-8.6,0-14.9-0.9-18.9-2.5c-0.7-0.3-2.1-1.2-2.7-1.6c-2-1.9-3.6-5.9-3.6-8.7c0-1.9,0.1-4.5,0.2-7.2
						c0.2-5.2,0.7-10.1,1.3-14.4c0.7-4.7,1.5-8.6,2.6-11.8c2.1-6.5,4.4-11.6,4.4-11.6l0.1-0.2v-0.2c0-0.1,0-0.2,0-0.3
						c0-0.6,0-0.8,0-0.9c-0.2-0.9-0.3-1.5-0.8-2.2c-0.7-1-1.7-1.7-3.1-1.9c-0.5-0.1-0.9-0.1-1.8-0.3c-1.4-0.2-2.1-0.3-2.5-0.4
						c0-0.1,0-0.2,0.1-0.3c0.4-2.3,2.1-3.7,4.6-3.7c0.4,0,0.9,0,1.3,0.1c3.1,0.5,5.2,2.1,5.6,3l1.3,3.6l-0.1,0.8l0.9-0.1
						c0.4,0,2.6,0.1,5.6,0.3c10.5,0.6,32.4,1.8,47.4,1.8c15.5,0,39.9-1.3,50.3-1.8c2.3-0.1,4-0.2,4.5-0.2L143.4,101.4L143.4,101.4z
						 M155.9,160.5c0.4-0.4,0.8-0.8,1.2-1.4v10c0,2-1.6,3.6-3.6,3.6h-8.6c-2,0-3.6-1.6-3.6-3.6v-4
						C152.3,164,155.5,160.9,155.9,160.5L155.9,160.5z M60.9,77L60.9,77c-0.3,0-0.6,0-1,0.1c-2.9,0.4-5.9,2.5-9.2,6.5
						c-1,1.3-2.1,2.7-3,4.2c-0.3,0.5-0.6,1-0.9,1.4c-0.2,0.3-0.3,0.4-0.3,0.6l0,0l0,0c-0.3,0.6-0.3,1.7,0.8,2.3
						c0.3,0.2,0.6,0.2,0.9,0.2c0.9,0,1.4-0.7,1.5-0.8l0,0l0,0c0.1-0.2,0.4-0.8,1.1-1.7c0.9-1.4,1.8-2.7,2.8-3.9
						c2.6-3.1,4.9-4.9,6.8-5.2c0.2,0,0.3,0,0.5,0l0,0l0,0c0.6-0.1,1.6-0.6,1.6-1.9C62.5,77.5,61.5,77,60.9,77L60.9,77L60.9,77z
						 M108.4,116.8H69.6c-1.9,0-3.6,0.8-4.7,2.1c-1.1,1.4-1.5,3.2-1.2,5.1l1.8,8.8c0.8,3.9,4.5,6.9,8.4,6.9H104
						c3.9,0,7.7-3.1,8.4-6.9l1.8-8.8c0.4-1.9,0-3.7-1.1-5.1C112,117.5,110.3,116.8,108.4,116.8L108.4,116.8z M73.9,136.1
						c-2.2,0-4.4-1.8-4.9-4l-1.8-8.8c-0.2-0.8,0-1.6,0.4-2.1s1.1-0.8,1.9-0.8h38.8c0.8,0,1.5,0.3,1.9,0.8s0.6,1.3,0.4,2.1l-1.8,8.8
						c-0.4,2.1-2.7,4-4.9,4H73.9L73.9,136.1z M146,120c-4,0-7.2,3.2-7.2,7.2s3.2,7.2,7.2,7.2s7.2-3.2,7.2-7.2S150,120,146,120
						L146,120z M146,130.8c-2,0-3.6-1.6-3.6-3.6s1.6-3.6,3.6-3.6s3.6,1.6,3.6,3.6C149.6,129.2,148,130.8,146,130.8L146,130.8z
						 M128.8,120c-5.2,0-9.4,4.2-9.4,9.4s4.2,9.4,9.4,9.4c5.2,0,9.4-4.2,9.4-9.4S134,120,128.8,120L128.8,120z M128.8,135.1
						c-3.1,0-5.7-2.6-5.7-5.7c0-3.1,2.6-5.7,5.7-5.7c3.1,0,5.7,2.6,5.7,5.7C134.5,132.5,131.9,135.1,128.8,135.1L128.8,135.1z
						 M51.3,120c-5.2,0-9.4,4.2-9.4,9.4s4.2,9.4,9.4,9.4s9.4-4.2,9.4-9.4C60.7,124.2,56.5,120,51.3,120L51.3,120z M51.3,135.1
						c-3.1,0-5.7-2.6-5.7-5.7c0-3.1,2.6-5.7,5.7-5.7s5.7,2.6,5.7,5.7C57.1,132.5,54.5,135.1,51.3,135.1L51.3,135.1z M34.1,120
						c-4,0-7.2,3.2-7.2,7.2s3.2,7.2,7.2,7.2s7.2-3.2,7.2-7.2S38.1,120,34.1,120L34.1,120z M34.1,130.8c-2,0-3.6-1.6-3.6-3.6
						s1.6-3.6,3.6-3.6s3.6,1.6,3.6,3.6C37.7,129.2,36.1,130.8,34.1,130.8L34.1,130.8z M105.1,121.1c-1,0-1.8,0.8-1.8,1.8v10.8
						c0,1,0.8,1.8,1.8,1.8s1.8-0.8,1.8-1.8v-10.8C107,121.9,106.1,121.1,105.1,121.1L105.1,121.1z M100.5,121.1
						c-1,0-1.8,0.8-1.8,1.8v10.8c0,1,0.8,1.8,1.8,1.8s1.8-0.8,1.8-1.8v-10.8C102.4,121.9,101.5,121.1,100.5,121.1L100.5,121.1z
						 M95.9,121.1c-1,0-1.8,0.8-1.8,1.8v10.8c0,1,0.8,1.8,1.8,1.8s1.8-0.8,1.8-1.8v-10.8C97.7,121.9,96.9,121.1,95.9,121.1
						L95.9,121.1z M91.3,121.1c-1,0-1.8,0.8-1.8,1.8v10.8c0,1,0.8,1.8,1.8,1.8s1.8-0.8,1.8-1.8v-10.8
						C93.1,121.9,92.3,121.1,91.3,121.1L91.3,121.1z M86.7,121.1c-1,0-1.8,0.8-1.8,1.8v10.8c0,1,0.8,1.8,1.8,1.8s1.8-0.8,1.8-1.8
						v-10.8C88.5,121.9,87.7,121.1,86.7,121.1L86.7,121.1z M82.1,121.1c-1,0-1.8,0.8-1.8,1.8v10.8c0,1,0.8,1.8,1.8,1.8
						s1.8-0.8,1.8-1.8v-10.8C83.9,121.9,83.1,121.1,82.1,121.1L82.1,121.1z M77.5,121.1c-1,0-1.8,0.8-1.8,1.8v10.8
						c0,1,0.8,1.8,1.8,1.8s1.8-0.8,1.8-1.8v-10.8C79.3,121.9,78.5,121.1,77.5,121.1L77.5,121.1z M72.9,121.1c-1,0-1.8,0.8-1.8,1.8
						v10.8c0,1,0.8,1.8,1.8,1.8s1.8-0.8,1.8-1.8v-10.8C74.7,121.9,73.9,121.1,72.9,121.1L72.9,121.1z M140.2,147.2
						c-0.2,0-0.5,0-0.7,0c-0.3,0-28.1,2.3-50.5,2.3c-22.5,0-48.1-2.3-48.4-2.3c-0.2,0-0.5,0-0.7,0c-3.1,0-7,1.5-9.1,3.5l-0.9,0.8
						c-1.7,1.6-1.6,2.9-1.3,3.5c0.2,0.6,1,1.7,3.3,1.8c0.3,0,33.6,2.3,57.1,2.4c0.7,0,1.4,0,2.1,0c23.4,0,56.8-2.4,57.2-2.4
						c2.3-0.2,3.1-1.2,3.3-1.8s0.4-1.9-1.4-3.6l-0.9-0.8C147.2,148.7,143.3,147.2,140.2,147.2L140.2,147.2z M89,153.2
						c3.3,0,7-0.1,10.8-0.2c7-0.2,14.8-0.5,23.2-1c4.1-0.2,8.2-0.5,12.1-0.8c1.3-0.1,2.5-0.2,3.5-0.3c0.6,0,1-0.1,1.3-0.1
						c0.1,0,0.3,0,0.4,0c2.1,0,5.1,1.2,6.6,2.5l0,0h-0.3c-1.2,0.1-2.6,0.2-4.1,0.3c-4.6,0.3-9.4,0.6-14.1,0.8
						c-7.2,0.4-14,0.7-20.2,0.9c-6.4,0.2-12.2,0.3-17.1,0.3c-0.7,0-1.4,0-2.1,0c-4.9,0-10.6-0.2-16.9-0.4
						c-5.9-0.2-12.3-0.5-19.2-0.8c-4.9-0.3-9.9-0.5-14.8-0.8c-1.6-0.1-3.1-0.2-4.4-0.3h-0.4l0,0c1.4-1.4,4.4-2.5,6.5-2.5
						c0.1,0,0.3,0,0.4,0c0.2,0,0.6,0.1,1.1,0.1c0.9,0.1,2,0.2,3.2,0.3c3.7,0.3,7.5,0.6,11.4,0.8c9.4,0.6,18.1,1,25.9,1.1
						C84.4,153.2,86.8,153.2,89,153.2L89,153.2z"/>
				</g>
				<g>
					<path class="st0" d="M24.5,176c-3.8,0-6.8-3.1-6.8-6.8v-21.5c0-1.4,0.4-2.7,1.2-3.8l0.7-1.1l-0.1,6l1.1,4.3v16
						c0,2.2,1.8,3.9,3.9,3.9h8.6c2.2,0,3.9-1.8,3.9-3.9v-6.3l2.9,0.3v5.9c0,3.8-3.1,6.8-6.8,6.8h-8.6V176z"/>
					<path class="st0" d="M19.1,144.1l-0.1,4.8l1.2,4.4v15.9c0,2.4,1.9,4.3,4.3,4.3h8.6c2.4,0,4.3-1.9,4.3-4.3v-5.8l2.2,0.3v5.6
						c0,3.6-2.9,6.5-6.5,6.5h-8.6c-3.6,0-6.5-2.9-6.5-6.5v-21.5C18,146.3,18.4,145.1,19.1,144.1 M19.9,141.5l-1.4,2.1
						c-0.8,1.2-1.2,2.6-1.2,4v21.5c0,4,3.2,7.2,7.2,7.2h8.6c4,0,7.2-3.2,7.2-7.2v-5.6v-0.7l-0.7-0.1l-2.2-0.3l-0.8-0.1v0.8v5.8
						c0,2-1.6,3.6-3.6,3.6h-8.6c-2,0-3.6-1.6-3.6-3.6V153v-0.1v-0.1l-1.1-4.3l0.1-4.7L19.9,141.5L19.9,141.5z"/>
				</g>
			</g>
		</g>
	</g>
</g>
<g id="Layer_2" class="st1">
	<g class="st2">
		<path d="M142.5,142.8c5.6,0,10-4.6,10-10s-4.6-10-10-10s-10,4.6-10,10C132.5,138.2,136.9,142.8,142.5,142.8z M142.5,127
			c3.3,0,5.6,2.6,5.6,5.6c0,3.3-2.6,5.6-5.6,5.6s-5.6-2.6-5.6-5.6S139.3,127,142.5,127z"/>
		<path d="M57.9,142.8c5.6,0,10-4.6,10-10s-4.6-10-10-10s-10,4.6-10,10C47.9,138.2,52.3,142.8,57.9,142.8z M57.9,127
			c3.3,0,5.6,2.6,5.6,5.6c0,3.3-2.6,5.6-5.6,5.6s-5.6-2.6-5.6-5.6C52.3,129.6,54.6,127,57.9,127z"/>
		<path d="M156.6,33.5H43.8c-6.1,0-10.8,4.8-10.8,10.8v128c0,2.4,2,4.3,4.8,4.3h1.7v15c0,2.4,2,4.3,4.3,4.3h28.4l0.4-0.2
			c0.9-0.4,3.5-1.7,3.5-4.1v-15h47.7v15c0,2.4,2,4.3,4.3,4.3h28.4l0.4-0.2c0.9-0.4,3.5-1.7,3.5-4.1v-15h2.6c2.2,0,3.9-2,3.9-4.3
			v-128C167.5,38.3,162.7,33.5,156.6,33.5z M37.3,59.3H98v52.1H37.3V59.3z M50.3,191.7h-6.5v-15h6.5V191.7z M61.2,191.7h-6.5v-15
			h6.5V191.7z M72,191.2c-0.2,0.2-0.4,0.2-0.7,0.4h-5.9v-15H72V191.2z M134.9,191.7h-6.5v-15h6.5V191.7z M145.8,191.7h-6.5v-15h6.5
			V191.7z M156.6,191.2c-0.2,0.2-0.4,0.2-0.7,0.4H150v-15h6.5L156.6,191.2L156.6,191.2z M163.1,172.4H37.7c-0.2,0-0.4,0-0.4,0l0,0
			V155h125.8V172.4z M163.1,150.7H37.3V116h125.8V150.7z M163.1,111.4h-60.7V59.3h60.7V111.4z M163.1,55H37.3V44.4
			c0-3.7,2.8-6.5,6.5-6.5h112.8c3.7,0,6.5,2.8,6.5,6.5V55z"/>
		<path d="M80.7,129h39.1c1.3,0,2.2-0.9,2.2-2.2s-0.9-2.2-2.2-2.2H80.7c-1.3,0-2.2,0.9-2.2,2.2C78.5,128.1,79.4,129,80.7,129z"/>
		<path d="M117.6,44.4H82.8c-1.3,0-2.2,0.9-2.2,2.2s0.9,2.2,2.2,2.2h34.7c1.3,0,2.2-0.9,2.2-2.2S118.9,44.4,117.6,44.4z"/>
		<path d="M80.7,139.8h39.1c1.3,0,2.2-0.9,2.2-2.2s-0.9-2.2-2.2-2.2H80.7c-1.3,0-2.2,0.9-2.2,2.2C78.5,138.9,79.4,139.8,80.7,139.8z
			"/>
	</g>
</g>
<image style="overflow:visible;" width="770" height="398" xlink:href="../../../../../Desktop/Screen Shot 2017-09-18 at 1.52.46 PM.png"  transform="matrix(0.5 0 0 0.5 -345.2 -175)">
</image>
</svg>
