<?xml version="1.0" encoding="utf-8"?>
<!-- Generator: Adobe Illustrator 21.1.0, SVG Export Plug-In . SVG Version: 6.00 Build 0)  -->
<svg version="1.1" id="Layer_1" xmlns="http://www.w3.org/2000/svg" xmlns:xlink="http://www.w3.org/1999/xlink" x="0px" y="0px"
	 viewBox="0 0 350 250" style="enable-background:new 0 0 350 250;" xml:space="preserve">
<style type="text/css">
	.st0{fill:#FFFFFF;stroke:#93D2BE;stroke-width:2;stroke-linecap:round;stroke-linejoin:round;stroke-miterlimit:10;}
	.st1{fill:none;stroke:#93D2BE;stroke-width:2;stroke-linecap:round;stroke-linejoin:round;stroke-miterlimit:10;}
	.st2{fill:#93D2BE;}
	.st3{fill:#E3EBA3;}
	.st4{fill:#C4C4C4;}
	.st5{fill:none;stroke:#8995CB;stroke-width:2;stroke-linecap:round;stroke-linejoin:round;stroke-miterlimit:10;}
	.st6{fill:none;stroke:#7E9DD1;stroke-width:2;stroke-linecap:round;stroke-linejoin:round;stroke-miterlimit:10;}
	.st7{fill:none;stroke:#C395C4;stroke-width:2;stroke-linecap:round;stroke-linejoin:round;stroke-miterlimit:10;}
</style>
<circle class="st0" cx="564.4" cy="102.1" r="40.4"/>
<path class="st0" d="M591.7,123.2c-0.9,1.2-1.9,2.3-2.9,3.3c-2.7,2.7-5.9,5-9.3,6.7c-4.6,2.2-9.7,3.5-15.1,3.5c-2.4,0-4.7-0.2-7-0.7
	c-6.7-1.4-12.8-4.7-17.4-9.4c-1.1-1.1-2.1-2.2-3-3.4c-2.8-3.6-4.9-7.9-6-12.4c-0.7-2.7-1.1-5.6-1.1-8.5c0-6.6,1.9-12.8,5.1-18
	c1.4-2.3,3.1-4.4,5-6.4c0.6-0.6,1.3-1.2,1.9-1.8c2.7-2.3,5.7-4.2,9-5.6c2.7-1.2,5.7-2,8.7-2.4"/>
<path class="st0" d="M581.7,72.2c2.6,1.5,5,3.4,7.1,5.5c6.2,6.2,10.1,14.9,10.1,24.4"/>
<path class="st0" d="M592.6,106.5c-2.1,13.6-13.9,24.1-28.1,24.1"/>
<path class="st0" d="M541.7,119.2c-2.5-3.3-4.3-7.2-5.1-11.4c-0.4-1.9-0.6-3.8-0.6-5.7c0-2.4,0.3-4.8,0.9-7
	c1.1-4.5,3.3-8.5,6.3-11.9c2.7-3,6-5.5,9.7-7.1c3.5-1.6,7.5-2.5,11.6-2.5c1.9,0,3.8,0.2,5.6,0.6c2.4,0.5,4.8,1.3,6.9,2.4
	c2.2,1.1,4.2,2.4,6,4c4.5,3.9,7.8,9.2,9.2,15.3"/>
<line class="st1" x1="564.4" y1="32.5" x2="564.4" y2="51.2"/>
<line class="st1" x1="564.4" y1="171.7" x2="564.4" y2="153"/>
<line class="st1" x1="591.8" y1="49.6" x2="588" y2="56.9"/>
<line class="st1" x1="596.6" y1="40.4" x2="594.7" y2="44.2"/>
<line class="st1" x1="528.9" y1="170.3" x2="540.9" y2="147.2"/>
<line class="st1" x1="632.7" y1="88.6" x2="614.4" y2="92.2"/>
<line class="st1" x1="502.9" y1="114.3" x2="514.5" y2="111.9"/>
<line class="st1" x1="492.9" y1="116.3" x2="497.3" y2="115.4"/>
<line class="st1" x1="617.8" y1="57.4" x2="603.5" y2="69.4"/>
<line class="st1" x1="511.1" y1="146.7" x2="525.4" y2="134.7"/>
<line class="st1" x1="618.7" y1="128.8" x2="610.2" y2="124.4"/>
<line class="st1" x1="501.9" y1="71.5" x2="518.7" y2="79.7"/>
<line class="st1" x1="594" y1="165.1" x2="586" y2="148.2"/>
<line class="st1" x1="538.7" y1="47.5" x2="542.8" y2="56"/>
<polygon class="st2" points="655.9,29.4 662.5,30.9 669.4,29.4 667.1,35.5 669.4,41.6 662.8,39.7 655.9,41.6 658.5,35.5 "/>
<polygon class="st2" points="461.3,92.3 463.3,95.5 466.7,97.6 463.4,99.2 461.8,102.5 460,99.1 456.5,97.1 459.9,95.7 "/>
<polygon class="st2" points="187.9,65.1 189.9,68.2 193.2,70.4 189.9,71.9 188.4,75.2 186.5,71.9 183.1,69.9 186.5,68.5 "/>
<polygon class="st2" points="684,107 686,110.2 689.4,112.3 686.1,113.9 684.5,117.2 682.7,113.8 679.2,111.8 682.7,110.4 "/>
<polygon class="st2" points="75.1,54.9 76.5,57.2 78.9,58.7 76.5,59.8 75.4,62.2 74.1,59.8 71.6,58.4 74.1,57.4 "/>
<polygon class="st3" points="280.4,83.8 280.1,88.8 282,93.6 277.3,92.7 273.2,95.1 273.7,90.1 271.5,85.3 276.3,86.5 "/>
<polygon class="st4" points="157.6,104.9 157.3,109.8 159.2,114.6 154.5,113.8 150.4,116.1 151,111.1 148.8,106.4 153.5,107.5 "/>
<g>
	<line class="st1" x1="491.2" y1="7.8" x2="491.2" y2="19.2"/>
	<line class="st1" x1="496.9" y1="13.5" x2="485.5" y2="13.5"/>
</g>
<g>
	<line class="st5" x1="67.5" y1="85.5" x2="67.5" y2="96.8"/>
	<line class="st5" x1="73.2" y1="91.2" x2="61.8" y2="91.2"/>
</g>
<g>
	<line class="st6" x1="233.5" y1="59.7" x2="228.3" y2="54.5"/>
	<line class="st6" x1="228.3" y1="59.7" x2="233.5" y2="54.5"/>
</g>
<circle class="st1" cx="646.7" cy="113.8" r="4"/>
<circle class="st7" cx="129.2" cy="55.8" r="4"/>
<g>
	<path class="st1" d="M334.4-41.5c-1,0-2,0.1-3,0.3c-3.6-6.3-10.4-10.5-18.2-10.5c-3.5,0-6.8,0.9-9.7,2.4c-2.3-3.7-6.4-6.2-11.1-6.2
		c-6.8,0-12.4,5.3-12.9,11.9c-0.5-0.1-1-0.1-1.6-0.1c-6,0-11,4-12.5,9.5h81.1C344.2-38.5,339.6-41.5,334.4-41.5z"/>
</g>
<path class="st2" d="M218.9,135.7h-7.5v-1.8c0-1.3-1-2.5-2.5-2.5h-5.3c-1.3,0-2.5,1-2.5,2.5v1.8H197c-0.3-6.9-6-12.5-12.8-12.5
	c-7,0-12.6,5.6-12.8,12.5h-4.5v-1.8c0-1.3-1-2.5-2.5-2.5H159c-1.3,0-2.5,1-2.5,2.5v1.8h-9.1c-6.1,0-11,4.9-11,11v48.9
	c0,6.1,4.9,11,11,11h9.1v1.8c0,1.3,1,2.5,2.5,2.5h5.3c1.3,0,2.5-1,2.5-2.5v-1.8h34.4v1.8c0,1.3,1,2.5,2.5,2.5h5.3
	c1.3,0,2.5-1,2.5-2.5v-1.8h7.5c6.1,0,11-4.9,11-11v-48.9C230,140.6,225,135.7,218.9,135.7z M147.5,204.1c-4.7,0-8.4-3.8-8.4-8.4
	v-48.9c0-4.7,3.8-8.4,8.4-8.4h9.1v65.8H147.5z M164.2,208.4h-5.1V134h5.1V208.4z M184.2,125.9c5.6,0,10,4.4,10.2,9.9h-20.6
	C174,130.3,178.6,125.9,184.2,125.9z M166.8,204.1v-65.8h34.4v65.8H166.8z M203.8,208.4V134h5.1v2.7v0.1v0.1v71.4H203.8z
	 M227.4,195.7c0,4.7-3.8,8.4-8.4,8.4h-7.5v-65.8h7.5c4.7,0,8.4,3.8,8.4,8.4V195.7z M177.6,164.4l9.5,3.4c0.1,0,0.3,0.1,0.4,0.1
	c0.5,0,1-0.4,1.2-0.9l1.8-4.9c0.1-0.3,0.1-0.6,0-1c-0.1-0.3-0.4-0.5-0.8-0.6l-9.5-3.4c-0.6-0.3-1.4,0.1-1.7,0.8l-1.8,4.9
	c-0.1,0.3-0.1,0.6,0,1C177,164,177.3,164.3,177.6,164.4z M180.5,160l7,2.6l-0.9,2.5l-7-2.6L180.5,160z M195.7,178l-1.7-4.5
	c-0.3-0.6-1-1-1.7-0.8l-4.8,1.8c-0.6,0.3-1,1-0.8,1.7l1.7,4.5c0.1,0.5,0.6,0.9,1.2,0.9c0.1,0,0.3,0,0.4-0.1l4.8-1.8
	c0.3-0.1,0.6-0.4,0.8-0.6C195.8,178.7,195.8,178.4,195.7,178z M190.5,178.7l-0.8-2.1l2.3-0.9l0.8,2.1L190.5,178.7z M176.9,170.2
	c-2.3,0-4.2,1.8-4.2,4.2c0,2.3,1.8,4.2,4.2,4.2c2.3,0,4.2-1.8,4.2-4.2C181.1,172.2,179.2,170.2,176.9,170.2z M176.9,176.1
	c-0.9,0-1.6-0.6-1.6-1.6c0-0.9,0.6-1.6,1.6-1.6c0.9,0,1.6,0.6,1.6,1.6C178.5,175.3,177.8,176.1,176.9,176.1z"/>
<g transform="translate(0,-952.36218)">
	<path class="st2" d="M56.3,1069.7c-3.4,1.4-4.3,4.5-4.5,7.6h-8.2c0-0.7-0.6-1.4-1.4-1.4c-2.8,0-5.7,0-8.5,0
		c-0.7,0.1-1.3,0.7-1.2,1.4H20.3c-3.8,0-6.8,3.1-6.8,6.8v65.5c0,3.8,3.1,6.8,6.8,6.8h98.5c3.8,0,6.8-3.1,6.8-6.8v-65.5
		c0-3.8-3.1-6.8-6.8-6.8h-12.3c0-0.7-0.6-1.4-1.4-1.4c-2.8,0-5.7,0-8.5,0c-0.7,0.1-1.3,0.7-1.2,1.4h-8.1c-0.1-3.4-1.4-6.6-4.5-7.6
		c-3.1-1-7.1-0.6-13.2-0.6C65.2,1069.4,60.5,1068.4,56.3,1069.7L56.3,1069.7z M69.7,1071.9c6.2,0,10.3-0.3,12.3,0.4
		c2.2,0.9,2.5,3.1,2.6,5h-30c0-2.5,0.9-4,2.6-5C61.2,1071.5,65.8,1071.9,69.7,1071.9z M20.3,1080.1h3.8c-0.6,2.5-1.5,4.5-2.8,6
		c-1.2,1.4-2.8,2.4-5.1,3.1v-5C16.2,1081.9,18,1080.1,20.3,1080.1z M106.2,1144.3 M116.1,1145.1c-0.2,0.1-0.3,0.3-0.5,0.4
		c-1.9,2-3,4.6-3.7,8.3H26.6c-0.7-3-1.6-5.6-3.2-7.7c-1.6-2.1-4-3.5-7.1-4.4V1092c3.1-0.8,5.5-2.2,7.2-4.2c1.7-2.1,2.8-4.7,3.5-7.8
		v0h85c0.7,3.1,1.8,5.8,3.6,7.8c1.8,2,4.3,3.4,7.4,4.2v49.7c-2.6,0.6-4.7,1.5-6.4,2.9 M114.7,1080.1h4.1c2.3,0,4.1,1.8,4.1,4.1v5
		c-2.3-0.7-4-1.7-5.3-3.2C116.3,1084.6,115.3,1082.6,114.7,1080.1z M88.4,1082.2c-1.1,1.7-2.1,3.4-3.2,5.1c-2,0.1-3.9,0.2-5.9,0.2
		c1.3,1.5,2.5,3,3.8,4.6c-0.5,1.9-1.1,3.9-1.6,5.8c1.8-0.8,3.6-1.5,5.5-2.3c1.6,1.1,3.3,2.2,4.9,3.4c-0.2-2-0.3-4-0.4-6
		c1.6-1.2,3.1-2.4,4.7-3.7c-1.9-0.5-3.8-1-5.7-1.5C89.8,1085.9,89.1,1084.1,88.4,1082.2L88.4,1082.2z M87.7,1088.5
		c0.2,0.5,0.4,1.1,0.6,1.7c0.6,0.1,1.2,0.3,1.8,0.5c-0.5,0.4-0.9,0.7-1.4,1.1c0,0.6,0.1,1.2,0.1,1.8c-0.5-0.4-1-0.7-1.5-1
		c-0.5,0.3-1.1,0.5-1.6,0.7c0.2-0.6,0.3-1.1,0.5-1.7c-0.3-0.5-0.7-1-1.1-1.4c0.6,0,1.2,0,1.8,0C87.1,1089.5,87.4,1089,87.7,1088.5
		L87.7,1088.5z M39.7,1128.1c-1.1,1.7-2.1,3.4-3.2,5.1c-2,0.1-3.9,0.2-5.9,0.2c1.3,1.5,2.5,3,3.8,4.6c-0.5,1.9-1.1,3.9-1.6,5.8
		c1.8-0.8,3.6-1.5,5.5-2.3c1.6,1.1,3.3,2.2,4.9,3.4c-0.2-2-0.3-4-0.4-6c1.6-1.2,3.1-2.4,4.7-3.7c-1.9-0.5-3.8-1-5.7-1.5
		C41,1131.8,40.4,1130,39.7,1128.1L39.7,1128.1z M39,1134.4c0.2,0.5,0.4,1.1,0.6,1.7c0.6,0.1,1.2,0.3,1.8,0.5
		c-0.5,0.4-0.9,0.7-1.4,1.1c0,0.6,0.1,1.2,0.1,1.8c-0.5-0.4-1-0.7-1.5-1c-0.5,0.3-1.1,0.5-1.6,0.7c0.2-0.6,0.3-1.1,0.5-1.7
		c-0.3-0.5-0.7-1-1.1-1.4c0.6,0,1.2,0,1.8,0C38.4,1135.4,38.7,1134.9,39,1134.4L39,1134.4z M60.8,1104.4c-1.1,1.7-2.1,3.4-3.2,5.1
		c-2,0.1-3.9,0.2-5.9,0.2c1.3,1.5,2.5,3,3.8,4.6c-0.5,1.9-1.1,3.9-1.6,5.8c1.8-0.8,3.6-1.5,5.5-2.3c1.6,1.1,3.3,2.2,4.9,3.4
		c-0.2-2-0.3-4-0.4-6c1.6-1.2,3.1-2.4,4.7-3.7c-1.9-0.5-3.8-1-5.7-1.5C62.1,1108.1,61.4,1106.2,60.8,1104.4z M91.2,1115
		c-1.1,1.7-2.1,3.4-3.2,5.1c-2,0.1-3.9,0.2-5.9,0.2c1.3,1.5,2.5,3,3.8,4.6c-0.5,1.9-1.1,3.9-1.6,5.8c1.8-0.8,3.6-1.5,5.5-2.3
		c1.6,1.1,3.3,2.2,4.9,3.4c-0.2-2-0.3-4-0.4-6c1.6-1.2,3.1-2.4,4.7-3.7c-1.9-0.5-3.8-1-5.7-1.5C92.5,1118.7,91.8,1116.8,91.2,1115z
		 M60.1,1110.6c0.2,0.5,0.4,1.1,0.6,1.7c0.6,0.1,1.2,0.3,1.8,0.5c-0.5,0.4-0.9,0.7-1.4,1.1c0,0.6,0.1,1.2,0.1,1.8
		c-0.5-0.4-1-0.7-1.5-1c-0.5,0.3-1.1,0.5-1.6,0.7c0.2-0.6,0.3-1.1,0.5-1.7c-0.3-0.5-0.7-1-1.1-1.4c0.6,0,1.2,0,1.8,0
		C59.5,1111.7,59.8,1111.1,60.1,1110.6L60.1,1110.6z M90.5,1121.2c0.2,0.5,0.4,1.1,0.6,1.7c0.6,0.1,1.2,0.3,1.8,0.5
		c-0.5,0.4-0.9,0.7-1.4,1.1c0,0.6,0.1,1.2,0.1,1.8c-0.5-0.4-1-0.7-1.5-1c-0.5,0.3-1.1,0.5-1.6,0.7c0.2-0.6,0.3-1.1,0.5-1.7
		c-0.3-0.5-0.7-1-1.1-1.4c0.6,0,1.2,0,1.8,0C89.8,1122.2,90.2,1121.7,90.5,1121.2L90.5,1121.2z M34.9,1088.7
		c-1.1,1.7-2.1,3.4-3.2,5.1c-2,0.1-3.9,0.2-5.9,0.2c1.3,1.5,2.5,3,3.8,4.6c-0.5,1.9-1.1,3.9-1.6,5.8c1.8-0.8,3.6-1.5,5.5-2.3
		c1.6,1.1,3.3,2.2,4.9,3.4c-0.2-2-0.3-4-0.4-6c1.6-1.2,3.1-2.4,4.7-3.7c-1.9-0.5-3.8-1-5.7-1.5C36.2,1092.5,35.5,1090.6,34.9,1088.7
		z M34.2,1095c0.2,0.5,0.4,1.1,0.6,1.7c0.6,0.1,1.2,0.3,1.8,0.5c-0.5,0.4-0.9,0.7-1.4,1.1c0,0.6,0.1,1.2,0.1,1.8
		c-0.5-0.4-1-0.7-1.5-1c-0.5,0.3-1.1,0.5-1.6,0.7c0.2-0.6,0.3-1.1,0.5-1.7c-0.3-0.5-0.7-1-1.1-1.4c0.6,0,1.2,0,1.8,0
		C33.5,1096,33.9,1095.5,34.2,1095L34.2,1095z M69.3,1134.1c-1.1,1.7-2.1,3.4-3.2,5.1c-2,0.1-3.9,0.2-5.9,0.2c1.3,1.5,2.5,3,3.8,4.6
		c-0.5,1.9-1.1,3.9-1.6,5.8c1.8-0.8,3.6-1.5,5.5-2.3c1.6,1.1,3.3,2.2,4.9,3.4c-0.2-2-0.3-4-0.4-6c1.6-1.2,3.1-2.4,4.7-3.7
		c-1.9-0.5-3.8-1-5.7-1.5C70.6,1137.8,69.9,1135.9,69.3,1134.1z M68.6,1140.3c0.2,0.5,0.4,1.1,0.6,1.7c0.6,0.1,1.2,0.3,1.8,0.5
		c-0.5,0.4-0.9,0.7-1.4,1.1c0,0.6,0.1,1.2,0.1,1.8c-0.5-0.4-1-0.7-1.5-1c-0.5,0.3-1.1,0.5-1.6,0.7c0.2-0.6,0.3-1.1,0.5-1.7
		c-0.3-0.5-0.7-1-1.1-1.4c0.6,0,1.2,0,1.8,0C68,1141.4,68.3,1140.9,68.6,1140.3L68.6,1140.3z M122.9,1144.6v5.1
		c0,2.3-1.8,4.1-4.1,4.1h-4.1c0.7-3,1.6-5,2.9-6.4C118.9,1146.1,120.5,1145.2,122.9,1144.6z M16.2,1144.6c2.2,0.7,3.7,1.7,4.9,3.2
		c1.2,1.5,2,3.5,2.6,6h-3.5c-2.3,0-4.1-1.8-4.1-4.1V1144.6z"/>
</g>
<g>
	<path class="st2" d="M333.7,123.7h-36.3v-6.5c0-1.9-1.2-4.6-4.6-4.6h-14.3c-1.9,0-4.6,1.2-4.6,4.6v6.5h-36c0,0-3.8,0-3.8,3.8v63.6
		c0,0,0,3.8,3.8,3.8h95.9c0,0,3.8,0,3.8-3.8v-63.6C337.5,127.5,337.5,123.7,333.7,123.7z M333.7,126.5c0.5,0,1,0.4,1,1s-0.4,1-1,1
		c-0.5,0-1-0.4-1-1S333.2,126.5,333.7,126.5z M333.6,136.9c0.5,0,1,0.4,1,1c0,0.5-0.4,1-1,1c-0.5,0-1-0.4-1-1
		C332.6,137.3,333,136.9,333.6,136.9z M323.7,126.5c0.5,0,1,0.4,1,1c0,0.5-0.4,1-1,1c-0.5,0-1-0.4-1-1
		C322.7,126.9,323.1,126.5,323.7,126.5z M277,117.2c0-1.2,0.8-1.4,1.5-1.5h14.3c1.2,0,1.4,0.8,1.5,1.5v6.5H277V117.2z M247.3,126.5
		c0.5,0,1,0.4,1,1c0,0.5-0.4,1-1,1c-0.5,0-1-0.4-1-1C246.4,126.9,246.8,126.5,247.3,126.5z M237.3,126.5c0.5,0,1,0.4,1,1s-0.4,1-1,1
		s-1-0.4-1-1S236.8,126.5,237.3,126.5z M238.4,137.8c0,0.5-0.4,1-1,1s-1-0.4-1-1s0.4-1,1-1S238.4,137.3,238.4,137.8z M237.3,192.4
		c-0.5,0-1-0.4-1-1c0-0.5,0.4-1,1-1s1,0.4,1,1C238.3,191.9,237.8,192.4,237.3,192.4z M237.4,182c-0.5,0-1-0.4-1-1c0-0.5,0.4-1,1-1
		s1,0.4,1,1C238.4,181.6,238,182,237.4,182z M247.3,192.4c-0.5,0-1-0.4-1-1c0-0.5,0.4-1,1-1c0.5,0,1,0.4,1,1
		C248.3,191.9,247.9,192.4,247.3,192.4z M323.7,192.4c-0.5,0-1-0.4-1-1c0-0.5,0.4-1,1-1c0.5,0,1,0.4,1,1
		C324.6,191.9,324.2,192.4,323.7,192.4z M333.7,192.4c-0.5,0-1-0.4-1-1c0-0.5,0.4-1,1-1c0.5,0,1,0.4,1,1
		C334.7,191.9,334.2,192.4,333.7,192.4z M332.6,181c0-0.5,0.4-1,1-1c0.5,0,1,0.4,1,1c0,0.5-0.4,1-1,1C333,182,332.6,181.6,332.6,181
		z M335.5,176l-15.9,16.8h-68.1L235.9,176v-33.6l15.6-16.7h68.1l15.9,16.8L335.5,176L335.5,176z"/>
	<path class="st2" d="M251.4,170.1l0.3,12.6l-0.2,0.9c0,0,6.4,0.9,7.6,0.1c1.2-0.8,1.6-0.6,6.1-1.9c4.6-1.3,4.4-2.6,4.4-2.6
		l-5.9,0.5l4.7-4.3l-4.8,1.3c3.6-2.3,7.1-4.9,8.6-7.2C272.6,169.4,251.4,170.1,251.4,170.1"/>
	<path class="st2" d="M253.5,163.4l-8.7-13.9l20.4-12.8l8.7,13.9L253.5,163.4z M248.4,150.4l6,9.5l16.1-10l-5.9-9.5L248.4,150.4z"/>
	
		<rect x="302.7" y="134.4" transform="matrix(0.342 -0.9397 0.9397 0.342 67.5027 385.9403)" class="st2" width="13.3" height="20.8"/>
	<circle class="st2" cx="305.8" cy="175.3" r="12.3"/>
</g>
</svg>
