<?xml version="1.0" encoding="utf-8"?>
<!-- Generator: Adobe Illustrator 21.1.0, SVG Export Plug-In . SVG Version: 6.00 Build 0)  -->
<svg version="1.1" id="Layer_1" xmlns="http://www.w3.org/2000/svg" xmlns:xlink="http://www.w3.org/1999/xlink" x="0px" y="0px"
	 viewBox="0 0 350 250" style="enable-background:new 0 0 350 250;" xml:space="preserve">
<style type="text/css">
	.st0{fill:#FFFFFF;stroke:#93D2BE;stroke-width:2;stroke-linecap:round;stroke-linejoin:round;stroke-miterlimit:10;}
	.st1{fill:none;stroke:#93D2BE;stroke-width:2;stroke-linecap:round;stroke-linejoin:round;stroke-miterlimit:10;}
	.st2{fill:#E3EBA3;}
	.st3{fill:#BFBFBF;}
	.st4{fill:#93D2BE;}
	.st5{fill:#C395C4;}
	.st6{fill:#C4C4C4;}
	.st7{fill:none;stroke:#8995CB;stroke-width:2;stroke-linecap:round;stroke-linejoin:round;stroke-miterlimit:10;}
	.st8{fill:none;stroke:#7E9DD1;stroke-width:2;stroke-linecap:round;stroke-linejoin:round;stroke-miterlimit:10;}
	.st9{fill:none;stroke:#C395C4;stroke-width:2;stroke-linecap:round;stroke-linejoin:round;stroke-miterlimit:10;}
</style>
<circle class="st0" cx="171.1" cy="139" r="40.4"/>
<path class="st0" d="M198.4,160.1c-0.9,1.2-1.9,2.3-2.9,3.3c-2.7,2.7-5.9,5-9.3,6.7c-4.6,2.2-9.7,3.5-15.1,3.5c-2.4,0-4.7-0.2-7-0.7
	c-6.7-1.4-12.8-4.7-17.4-9.4c-1.1-1.1-2.1-2.2-3-3.4c-2.8-3.6-4.9-7.9-6-12.4c-0.7-2.7-1.1-5.6-1.1-8.5c0-6.6,1.9-12.8,5.1-18
	c1.4-2.3,3.1-4.4,5-6.4c0.6-0.6,1.3-1.2,1.9-1.8c2.7-2.3,5.7-4.2,9-5.6c2.7-1.2,5.7-2,8.7-2.4"/>
<path class="st0" d="M188.4,109.1c2.6,1.5,5,3.4,7.1,5.5c6.2,6.2,10.1,14.9,10.1,24.4"/>
<path class="st0" d="M199.2,143.4c-2.1,13.6-13.9,24.1-28.1,24.1"/>
<path class="st0" d="M148.3,156c-2.5-3.3-4.3-7.2-5.1-11.4c-0.4-1.9-0.6-3.8-0.6-5.7c0-2.4,0.3-4.8,0.9-7c1.1-4.5,3.3-8.5,6.3-11.9
	c2.7-3,6-5.5,9.7-7.1c3.5-1.6,7.5-2.5,11.6-2.5c1.9,0,3.8,0.2,5.6,0.6c2.4,0.5,4.8,1.3,6.9,2.4c2.2,1.1,4.2,2.4,6,4
	c4.5,3.9,7.8,9.2,9.2,15.3"/>
<line class="st1" x1="171.1" y1="69.4" x2="171.1" y2="88"/>
<line class="st1" x1="171.1" y1="208.5" x2="171.1" y2="189.9"/>
<line class="st1" x1="198.5" y1="86.5" x2="194.7" y2="93.8"/>
<line class="st1" x1="203.3" y1="77.3" x2="201.3" y2="81"/>
<line class="st1" x1="135.5" y1="207.2" x2="147.6" y2="184.1"/>
<line class="st1" x1="239.4" y1="125.5" x2="221.1" y2="129.1"/>
<line class="st1" x1="109.6" y1="151.1" x2="121.1" y2="148.8"/>
<line class="st1" x1="99.5" y1="153.2" x2="103.9" y2="152.3"/>
<line class="st1" x1="224.5" y1="94.3" x2="210.2" y2="106.3"/>
<line class="st1" x1="117.7" y1="183.6" x2="132" y2="171.6"/>
<line class="st1" x1="225.4" y1="165.7" x2="216.8" y2="161.3"/>
<line class="st1" x1="108.6" y1="108.4" x2="125.4" y2="116.6"/>
<line class="st1" x1="200.6" y1="202" x2="192.7" y2="185.1"/>
<line class="st1" x1="145.4" y1="84.4" x2="149.5" y2="92.9"/>
<polygon class="st2" points="262.6,66.3 269.1,67.8 276,66.3 273.8,72.4 276,78.5 269.5,76.6 262.6,78.5 265.2,72.4 "/>
<polygon class="st3" points="68,129.2 70,132.4 73.3,134.5 70,136 68.5,139.4 66.6,136 63.2,134 66.6,132.6 "/>
<polygon class="st4" points="-236.6,74.4 -234.6,77.6 -231.3,79.7 -234.6,81.2 -236.1,84.5 -238,81.2 -241.5,79.2 -238,77.8 "/>
<polygon class="st5" points="290.7,143.9 292.7,147.1 296,149.2 292.7,150.7 291.2,154 289.4,150.7 285.9,148.7 289.3,147.3 "/>
<polygon class="st4" points="-349.5,64.2 -348,66.5 -345.6,68 -348,69.1 -349.1,71.5 -350.4,69.1 -353,67.7 -350.5,66.7 "/>
<polygon class="st2" points="-144.1,93.1 -144.4,98.1 -142.5,102.9 -147.2,102 -151.3,104.4 -150.8,99.4 -153,94.6 -148.2,95.8 "/>
<polygon class="st6" points="-266.9,114.2 -267.2,119.1 -265.3,124 -270,123.1 -274.1,125.4 -273.6,120.5 -275.8,115.7 -271,116.8 
	"/>
<g>
	<line class="st7" x1="97.9" y1="44.7" x2="97.9" y2="56"/>
	<line class="st7" x1="103.5" y1="50.4" x2="92.2" y2="50.4"/>
</g>
<g>
	<line class="st7" x1="-357" y1="94.8" x2="-357" y2="106.1"/>
	<line class="st7" x1="-351.3" y1="100.5" x2="-362.7" y2="100.5"/>
</g>
<g>
	<line class="st8" x1="-191" y1="69" x2="-196.2" y2="63.8"/>
	<line class="st8" x1="-196.2" y1="69" x2="-191" y2="63.8"/>
</g>
<circle class="st1" cx="253.4" cy="150.7" r="4"/>
<circle class="st9" cx="-295.3" cy="65.1" r="4"/>
<g>
	<path class="st1" d="M334.4-41.5c-1,0-2,0.1-3,0.3c-3.6-6.3-10.4-10.5-18.2-10.5c-3.5,0-6.8,0.9-9.7,2.4c-2.3-3.7-6.4-6.2-11.1-6.2
		c-6.8,0-12.4,5.3-12.9,11.9c-0.5-0.1-1-0.1-1.6-0.1c-6,0-11,4-12.5,9.5h81.1C344.2-38.5,339.6-41.5,334.4-41.5z"/>
</g>
<path class="st4" d="M-205.6,145h-7.5v-1.8c0-1.3-1-2.5-2.5-2.5h-5.3c-1.3,0-2.5,1-2.5,2.5v1.8h-4.2c-0.3-6.9-6-12.5-12.8-12.5
	c-7,0-12.6,5.6-12.8,12.5h-4.5v-1.8c0-1.3-1-2.5-2.5-2.5h-5.3c-1.3,0-2.5,1-2.5,2.5v1.8h-9.1c-6.1,0-11,4.9-11,11V205
	c0,6.1,4.9,11,11,11h9.1v1.8c0,1.3,1,2.5,2.5,2.5h5.3c1.3,0,2.5-1,2.5-2.5V216h34.4v1.8c0,1.3,1,2.5,2.5,2.5h5.3
	c1.3,0,2.5-1,2.5-2.5V216h7.5c6.1,0,11-4.9,11-11v-48.9C-194.5,150-199.5,145-205.6,145z M-277.1,213.4c-4.7,0-8.4-3.8-8.4-8.4
	v-48.9c0-4.7,3.8-8.4,8.4-8.4h9.1v65.8H-277.1z M-260.3,217.7h-5.1v-74.3h5.1V217.7z M-240.3,135.2c5.6,0,10,4.4,10.2,9.9h-20.6
	C-250.5,139.6-245.9,135.2-240.3,135.2z M-257.7,213.4v-65.8h34.4v65.8H-257.7z M-220.8,217.7v-74.3h5.1v2.7v0.1v0.1v71.4H-220.8z
	 M-197.1,205c0,4.7-3.8,8.4-8.4,8.4h-7.5v-65.8h7.5c4.7,0,8.4,3.8,8.4,8.4V205z M-247,173.7l9.5,3.4c0.1,0,0.3,0.1,0.4,0.1
	c0.5,0,1-0.4,1.2-0.9l1.8-4.9c0.1-0.3,0.1-0.6,0-1c-0.1-0.3-0.4-0.5-0.8-0.6l-9.5-3.4c-0.6-0.3-1.4,0.1-1.7,0.8l-1.8,4.9
	c-0.1,0.3-0.1,0.6,0,1C-247.5,173.3-247.2,173.6-247,173.7z M-244,169.3l7,2.6l-0.9,2.5l-7-2.6L-244,169.3z M-228.8,187.3l-1.7-4.5
	c-0.3-0.6-1-1-1.7-0.8l-4.8,1.8c-0.6,0.3-1,1-0.8,1.7l1.7,4.5c0.1,0.5,0.6,0.9,1.2,0.9c0.1,0,0.3,0,0.4-0.1l4.8-1.8
	c0.3-0.1,0.6-0.4,0.8-0.6C-228.7,188-228.7,187.7-228.8,187.3z M-234,188l-0.8-2.1l2.3-0.9l0.8,2.1L-234,188z M-247.6,179.5
	c-2.3,0-4.2,1.8-4.2,4.2c0,2.3,1.8,4.2,4.2,4.2c2.3,0,4.2-1.8,4.2-4.2C-243.5,181.5-245.3,179.5-247.6,179.5z M-247.6,185.4
	c-0.9,0-1.6-0.6-1.6-1.6c0-0.9,0.6-1.6,1.6-1.6c0.9,0,1.6,0.6,1.6,1.6C-246.1,184.6-246.7,185.4-247.6,185.4z"/>
<g transform="translate(0,-952.36218)">
	<path class="st4" d="M-368.2,1079c-3.4,1.4-4.3,4.5-4.5,7.6h-8.2c0-0.7-0.6-1.4-1.4-1.4c-2.8,0-5.7,0-8.5,0
		c-0.7,0.1-1.3,0.7-1.2,1.4h-12.2c-3.8,0-6.8,3.1-6.8,6.8v65.5c0,3.8,3.1,6.8,6.8,6.8h98.5c3.8,0,6.8-3.1,6.8-6.8v-65.5
		c0-3.8-3.1-6.8-6.8-6.8H-318c0-0.7-0.6-1.4-1.4-1.4c-2.8,0-5.7,0-8.5,0c-0.7,0.1-1.3,0.7-1.2,1.4h-8.1c-0.1-3.4-1.4-6.6-4.5-7.6
		c-3.1-1-7.1-0.6-13.2-0.6C-359.3,1078.7-364,1077.7-368.2,1079L-368.2,1079z M-354.9,1081.2c6.2,0,10.3-0.3,12.3,0.4
		c2.2,0.9,2.5,3.1,2.6,5h-30c0-2.5,0.9-4,2.6-5C-363.3,1080.8-358.7,1081.2-354.9,1081.2z M-404.2,1089.4h3.8
		c-0.6,2.5-1.5,4.5-2.8,6c-1.2,1.4-2.8,2.4-5.1,3.1v-5C-408.3,1091.2-406.5,1089.4-404.2,1089.4z M-318.4,1153.6 M-308.4,1154.4
		c-0.2,0.1-0.3,0.3-0.5,0.4c-1.9,2-3,4.6-3.7,8.3h-85.3c-0.7-3-1.6-5.6-3.2-7.7c-1.6-2.1-4-3.5-7.1-4.4v-49.7
		c3.1-0.8,5.5-2.2,7.2-4.2c1.7-2.1,2.8-4.7,3.5-7.8v0h85c0.7,3.1,1.8,5.8,3.6,7.8c1.8,2,4.3,3.4,7.4,4.2v49.7
		c-2.6,0.6-4.7,1.5-6.4,2.9 M-309.8,1089.4h4.1c2.3,0,4.1,1.8,4.1,4.1v5c-2.3-0.7-4-1.7-5.3-3.2
		C-308.2,1093.9-309.2,1091.9-309.8,1089.4z M-336.1,1091.5c-1.1,1.7-2.1,3.4-3.2,5.1c-2,0.1-3.9,0.2-5.9,0.2c1.3,1.5,2.5,3,3.8,4.6
		c-0.5,1.9-1.1,3.9-1.6,5.8c1.8-0.8,3.6-1.5,5.5-2.3c1.6,1.1,3.3,2.2,4.9,3.4c-0.2-2-0.3-4-0.4-6c1.6-1.2,3.1-2.4,4.7-3.7
		c-1.9-0.5-3.8-1-5.7-1.5C-334.8,1095.3-335.4,1093.4-336.1,1091.5L-336.1,1091.5z M-336.8,1097.8c0.2,0.5,0.4,1.1,0.6,1.7
		c0.6,0.1,1.2,0.3,1.8,0.5c-0.5,0.4-0.9,0.7-1.4,1.1c0,0.6,0.1,1.2,0.1,1.8c-0.5-0.4-1-0.7-1.5-1c-0.5,0.3-1.1,0.5-1.6,0.7
		c0.2-0.6,0.3-1.1,0.5-1.7c-0.3-0.5-0.7-1-1.1-1.4c0.6,0,1.2,0,1.8,0C-337.4,1098.8-337.1,1098.3-336.8,1097.8L-336.8,1097.8z
		 M-384.8,1137.4c-1.1,1.7-2.1,3.4-3.2,5.1c-2,0.1-3.9,0.2-5.9,0.2c1.3,1.5,2.5,3,3.8,4.6c-0.5,1.9-1.1,3.9-1.6,5.8
		c1.8-0.8,3.6-1.5,5.5-2.3c1.6,1.1,3.3,2.2,4.9,3.4c-0.2-2-0.3-4-0.4-6c1.6-1.2,3.1-2.4,4.7-3.7c-1.9-0.5-3.8-1-5.7-1.5
		C-383.5,1141.1-384.1,1139.3-384.8,1137.4L-384.8,1137.4z M-385.5,1143.7c0.2,0.5,0.4,1.1,0.6,1.7c0.6,0.1,1.2,0.3,1.8,0.5
		c-0.5,0.4-0.9,0.7-1.4,1.1c0,0.6,0.1,1.2,0.1,1.8c-0.5-0.4-1-0.7-1.5-1c-0.5,0.3-1.1,0.5-1.6,0.7c0.2-0.6,0.3-1.1,0.5-1.7
		c-0.3-0.5-0.7-1-1.1-1.4c0.6,0,1.2,0,1.8,0C-386.1,1144.7-385.8,1144.2-385.5,1143.7L-385.5,1143.7z M-363.7,1113.7
		c-1.1,1.7-2.1,3.4-3.2,5.1c-2,0.1-3.9,0.2-5.9,0.2c1.3,1.5,2.5,3,3.8,4.6c-0.5,1.9-1.1,3.9-1.6,5.8c1.8-0.8,3.6-1.5,5.5-2.3
		c1.6,1.1,3.3,2.2,4.9,3.4c-0.2-2-0.3-4-0.4-6c1.6-1.2,3.1-2.4,4.7-3.7c-1.9-0.5-3.8-1-5.7-1.5
		C-362.4,1117.4-363.1,1115.6-363.7,1113.7z M-333.4,1124.3c-1.1,1.7-2.1,3.4-3.2,5.1c-2,0.1-3.9,0.2-5.9,0.2c1.3,1.5,2.5,3,3.8,4.6
		c-0.5,1.9-1.1,3.9-1.6,5.8c1.8-0.8,3.6-1.5,5.5-2.3c1.6,1.1,3.3,2.2,4.9,3.4c-0.2-2-0.3-4-0.4-6c1.6-1.2,3.1-2.4,4.7-3.7
		c-1.9-0.5-3.8-1-5.7-1.5C-332,1128-332.7,1126.1-333.4,1124.3z M-364.4,1119.9c0.2,0.5,0.4,1.1,0.6,1.7c0.6,0.1,1.2,0.3,1.8,0.5
		c-0.5,0.4-0.9,0.7-1.4,1.1c0,0.6,0.1,1.2,0.1,1.8c-0.5-0.4-1-0.7-1.5-1c-0.5,0.3-1.1,0.5-1.6,0.7c0.2-0.6,0.3-1.1,0.5-1.7
		c-0.3-0.5-0.7-1-1.1-1.4c0.6,0,1.2,0,1.8,0C-365.1,1121-364.7,1120.5-364.4,1119.9L-364.4,1119.9z M-334,1130.5
		c0.2,0.5,0.4,1.1,0.6,1.7c0.6,0.1,1.2,0.3,1.8,0.5c-0.5,0.4-0.9,0.7-1.4,1.1c0,0.6,0.1,1.2,0.1,1.8c-0.5-0.4-1-0.7-1.5-1
		c-0.5,0.3-1.1,0.5-1.6,0.7c0.2-0.6,0.3-1.1,0.5-1.7c-0.3-0.5-0.7-1-1.1-1.4c0.6,0,1.2,0,1.8,0
		C-334.7,1131.6-334.4,1131.1-334,1130.5L-334,1130.5z M-389.6,1098.1c-1.1,1.7-2.1,3.4-3.2,5.1c-2,0.1-3.9,0.2-5.9,0.2
		c1.3,1.5,2.5,3,3.8,4.6c-0.5,1.9-1.1,3.9-1.6,5.8c1.8-0.8,3.6-1.5,5.5-2.3c1.6,1.1,3.3,2.2,4.9,3.4c-0.2-2-0.3-4-0.4-6
		c1.6-1.2,3.1-2.4,4.7-3.7c-1.9-0.5-3.8-1-5.7-1.5C-388.3,1101.8-389,1099.9-389.6,1098.1z M-390.3,1104.3c0.2,0.5,0.4,1.1,0.6,1.7
		c0.6,0.1,1.2,0.3,1.8,0.5c-0.5,0.4-0.9,0.7-1.4,1.1c0,0.6,0.1,1.2,0.1,1.8c-0.5-0.4-1-0.7-1.5-1c-0.5,0.3-1.1,0.5-1.6,0.7
		c0.2-0.6,0.3-1.1,0.5-1.7c-0.3-0.5-0.7-1-1.1-1.4c0.6,0,1.2,0,1.8,0C-391,1105.3-390.6,1104.8-390.3,1104.3L-390.3,1104.3z
		 M-355.2,1143.4c-1.1,1.7-2.1,3.4-3.2,5.1c-2,0.1-3.9,0.2-5.9,0.2c1.3,1.5,2.5,3,3.8,4.6c-0.5,1.9-1.1,3.9-1.6,5.8
		c1.8-0.8,3.6-1.5,5.5-2.3c1.6,1.1,3.3,2.2,4.9,3.4c-0.2-2-0.3-4-0.4-6c1.6-1.2,3.1-2.4,4.7-3.7c-1.9-0.5-3.8-1-5.7-1.5
		C-353.9,1147.1-354.6,1145.3-355.2,1143.4z M-355.9,1149.7c0.2,0.5,0.4,1.1,0.6,1.7c0.6,0.1,1.2,0.3,1.8,0.5
		c-0.5,0.4-0.9,0.7-1.4,1.1c0,0.6,0.1,1.2,0.1,1.8c-0.5-0.4-1-0.7-1.5-1c-0.5,0.3-1.1,0.5-1.6,0.7c0.2-0.6,0.3-1.1,0.5-1.7
		c-0.3-0.5-0.7-1-1.1-1.4c0.6,0,1.2,0,1.8,0C-356.6,1150.7-356.2,1150.2-355.9,1149.7L-355.9,1149.7z M-301.6,1153.9v5.1
		c0,2.3-1.8,4.1-4.1,4.1h-4.1c0.7-3,1.6-5,2.9-6.4C-305.6,1155.4-304,1154.5-301.6,1153.9z M-408.3,1153.9c2.2,0.7,3.7,1.7,4.9,3.2
		c1.2,1.5,2,3.5,2.6,6h-3.5c-2.3,0-4.1-1.8-4.1-4.1V1153.9z"/>
</g>
<g>
	<path class="st4" d="M-90.9,133h-36.3v-6.5c0-1.9-1.2-4.6-4.6-4.6h-14.3c-1.9,0-4.6,1.2-4.6,4.6v6.5h-36c0,0-3.8,0-3.8,3.8v63.6
		c0,0,0,3.8,3.8,3.8h95.9c0,0,3.8,0,3.8-3.8v-63.6C-87,136.8-87,133-90.9,133z M-90.8,135.8c0.5,0,1,0.4,1,1c0,0.5-0.4,1-1,1
		s-1-0.4-1-1C-91.8,136.2-91.3,135.8-90.8,135.8z M-90.9,146.2c0.5,0,1,0.4,1,1c0,0.5-0.4,1-1,1s-1-0.4-1-1
		C-91.9,146.6-91.5,146.2-90.9,146.2z M-100.8,135.8c0.5,0,1,0.4,1,1c0,0.5-0.4,1-1,1s-1-0.4-1-1
		C-101.8,136.2-101.4,135.8-100.8,135.8z M-147.5,126.5c0-1.2,0.8-1.4,1.5-1.5h14.3c1.2,0,1.4,0.8,1.5,1.5v6.5h-17.2V126.5z
		 M-177.2,135.8c0.5,0,1,0.4,1,1c0,0.5-0.4,1-1,1s-1-0.4-1-1C-178.1,136.2-177.7,135.8-177.2,135.8z M-187.2,135.8c0.5,0,1,0.4,1,1
		c0,0.5-0.4,1-1,1c-0.5,0-1-0.4-1-1C-188.2,136.2-187.7,135.8-187.2,135.8z M-186.1,147.1c0,0.5-0.4,1-1,1s-1-0.4-1-1
		c0-0.5,0.4-1,1-1S-186.1,146.6-186.1,147.1z M-187.2,201.7c-0.5,0-1-0.4-1-1c0-0.5,0.4-1,1-1c0.5,0,1,0.4,1,1
		C-186.2,201.2-186.7,201.7-187.2,201.7z M-187.1,191.3c-0.5,0-1-0.4-1-1c0-0.5,0.4-1,1-1s1,0.4,1,1
		C-186.1,190.9-186.5,191.3-187.1,191.3z M-177.2,201.7c-0.5,0-1-0.4-1-1c0-0.5,0.4-1,1-1s1,0.4,1,1
		C-176.2,201.3-176.6,201.7-177.2,201.7z M-100.8,201.7c-0.5,0-1-0.4-1-1c0-0.5,0.4-1,1-1s1,0.4,1,1
		C-99.9,201.3-100.3,201.7-100.8,201.7z M-90.8,201.7c-0.5,0-1-0.4-1-1c0-0.5,0.4-1,1-1s1,0.4,1,1
		C-89.8,201.2-90.3,201.7-90.8,201.7z M-91.9,190.3c0-0.5,0.4-1,1-1s1,0.4,1,1c0,0.5-0.4,1-1,1S-91.9,190.9-91.9,190.3z M-89,185.3
		l-15.9,16.8H-173l-15.6-16.8v-33.6l15.6-16.7h68.1l15.9,16.8L-89,185.3L-89,185.3z"/>
	<path class="st4" d="M-173.1,179.4l0.3,12.6l-0.2,0.9c0,0,6.4,0.9,7.6,0.1c1.2-0.8,1.6-0.6,6.1-1.9c4.6-1.3,4.4-2.6,4.4-2.6
		l-5.9,0.5l4.7-4.3l-4.8,1.3c3.6-2.3,7.1-4.9,8.6-7.2C-151.9,178.7-173.1,179.4-173.1,179.4"/>
	<path class="st4" d="M-171,172.7l-8.7-13.9l20.4-12.8l8.7,13.9L-171,172.7z M-176.2,159.7l6,9.5l16.1-10l-5.9-9.5L-176.2,159.7z"/>
	
		<rect x="-121.8" y="143.7" transform="matrix(0.342 -0.9397 0.9397 0.342 -220.5755 -6.8463)" class="st4" width="13.3" height="20.8"/>
	<circle class="st4" cx="-118.7" cy="184.7" r="12.3"/>
</g>
</svg>
